<svg xmlns="http://www.w3.org/2000/svg" viewBox="0 0 178 11" style="enable-background:new 0 0 178 11" xml:space="preserve">
  <path d="M0 11h178V5.9h-5.2c-2.2 0-2.6-.3-3-2.6v-.2c-.4-2.7-.8-3-3.4-3-2.1 0-2.5.4-2.9 2.5-.6 2.9-.9 3.3-3.8 3.3h-7.1c-1.9 0-2.3-.5-2.4-2.4 0-1.3.3-2.8-1.4-3.5h-2.5c-1.7.4-2.2 1.8-2.3 3.3-.2 2.2-.4 2.2-2.5 2.6-3.1.6-6-.3-9.1-.1-1.5.1-2.1-1.1-2.2-2.4-.3-2.7-1.7-3.3-4.4-3-.8.1-1.3.5-1.6 1.3l-.7 2.1c-.6 1.8-1 2.1-2.8 2.1h-7.4c-1.7 0-1.9-.2-1.9-1.9 0-.9-.3-1.8-.3-2.7 0-.9-.7-1.1-1.4-1.3h-3.2c-1.1.3-1.6 1.1-1.8 2.1-1 3.8-1 3.8-4.9 3.8h-4.7c-1.4 0-2.2-.6-2.4-2-.1-.3-.1-.5-.2-.8C91.9.3 90.1-.6 87.4.3c-.6.2-1.1.6-1.3 1.2-.1.3-.3.6-.3.9-.7 3.8-1.2 3.5-4.8 3.5h-6.8c-2.3 0-2.8-.4-3.2-2.6 0-.2-.1-.4-.1-.6-.5-2-1-2.5-3.2-2.5-3 0-3 0-3.7 2.9-.6 2.6-1.8 3.4-4.5 3.3-2.2-.1-4.3-.5-6.5-.5-1.1 0-1.6-.6-1.7-1.7 0-.4 0-.7-.1-1.1-.1-1.4-.5-2.6-2-3H47c-1.8.3-2.1 1.6-2.3 3.1C44.4 5.6 44 6 41.6 6h-6.8c-1.9 0-2.4-.4-2.9-2.3l-.2-.8C31.1.8 30.5.2 28.8.2c-2 0-2.9.7-3.5 2.7-.1.4-.2.8-.2 1.2-.2 1.2-.9 1.8-2 1.8-3.4 0-6.7.1-10.1 0-1.5 0-1.9-.5-2.1-2v-.3C10.5 0 9.2 0 6.1.2c-1 .1-1.4.8-1.5 1.7C4.1 5.2 2.6 6.5 0 6v5z" style="fill-rule:evenodd;clip-rule:evenodd;fill:#b99f65"/>
</svg>
