<svg xmlns="http://www.w3.org/2000/svg" viewBox="0 0 200 42" style="enable-background:new 0 0 200 42" xml:space="preserve">
  <defs>
    <filter id="a" filterUnits="userSpaceOnUse" x="0" y="0" width="200" height="42">
      <feColorMatrix values="1 0 0 0 0 0 1 0 0 0 0 0 1 0 0 0 0 0 1 0"/>
    </filter>
  </defs>
  <mask maskUnits="userSpaceOnUse" x="0" y="0" width="200" height="42" id="b">
    <g style="filter:url(#a)">
      <path d="M0 0h200v42H0V0z" style="fill-rule:evenodd;clip-rule:evenodd;fill:#fff"/>
    </g>
  </mask>
  <path d="M68.8 19.2c-.3 0-.5-.1-.7-.2-.5-.2-.6-.6-.7-1.1 0-.4.4-.9.8-.9.6 0 1.2 0 1.8-.1.7 0 1.3-.1 1.9-.4.6-.2 1-.7 1.1-1.3.1-.4.1-.9.1-1.4.1-.6.6-1.1 1.1-1.2.8-.1 1.6-.3 2.3-.3 2.2 0 4.4.1 6.6.2 1.3.3 2.3.9 2.8 2.2.2.7.4 1.4.4 2.1.1 1.9.1 5.9.2 5.9v3.8c-.1 1.7-.5 3.7-2.6 3.7-1.9 0-2.6-2.2-2.6-3.4 0-1.5.1-3.1.1-4.6 0-.5-.1-1-.2-1.5-.1-.6-.6-1-1.2-1.2-.7-.2-1.4-.2-2.1-.2h-7.4c-.5-.1-1.1-.1-1.7-.1m-61.9-.1c-1.3 0-2.6-.1-3.9 0H0V42h200V19.1h-5.1s-1.4.1-1.4 1.3c0 1.4 0 2.8-.1 4.3 0 .5-.1.9-.2 1.3-.1.3-.3.6-.4.9-.3.4-.7.6-1.2.6-.9 0-1.8.1-2.7.1h-2.7c-.3 0-.7 0-1-.1-.7-.1-1.3-.6-1.4-1.2-.2-1.2-.3-2.5-.1-3.7.1-.4.3-.7.7-.8.4-.1.8 0 1.1.3.1.1.2.3.3.5l.3 1.5c.1.6.6 1 1.2 1.1h.2c2 .2 2.5-.8 2.7-2.1.2-1 0-3.6-.1-4.9-.4-.7-1-1.3-1.8-1.6-.9-.3-1.7-.5-2.7-.5-.9 0-1.8 0-2.7-.1-.6 0-1-.3-1.2-.8-.5-1.1.1-2.2 1.3-2.3h3.9c1.5 0 1.9-.2 3.1-1.5 1-.7 1.8-.4 2.6-.3.9.1 1.3.9 1.6 1.7.2.5.3 1 .4 1.5.1.4.2.7.4 1.1.1.3.7.6 1.1.6.5 0 1-.5 1.1-1 .2-1.2.1-2.3 0-3.5-.1-.5-.2-1-.4-1.5-.4-1-1.1-1.6-2.1-1.8-.6-.1-1.3-.1-1.9-.2-.5 0-1 0-1.6-.1-.6-.1-.9-.4-1-1v-.8c0-1-.3-2.1-.8-3-.3-.6-.8-.9-1.4-1-.5 0-1-.1-1.6-.1h-3.7c-.5 0-.8.3-1 .8 0 .1-.1.3-.1.4 0 .5.3 1 .7 1 .4.1.9.1 1.4.1.6.1 1.2.1 1.7.2.9.2 1.3.8 1.5 1.6v.5c0 .4 0 .8-.1 1.2-.1 1-.7 1.7-1.7 1.9-.7.2-1.4.2-2.1.3-.7.1-1.4.1-2.1.1-1.1 0-1.8.7-2.2 1.6-.2.4-.3.9-.4 1.3-.1.7-.1 1.4-.1 2.1v.1c0 2.3 0 6.7-.1 7.4 0 .3-.1.6-.2.9-.4 1-1.5 1.2-2.2.6-.3-.2-.5-.5-.7-.9l-.3-1.2v-1.2c0-.3-.1-.6-.1-1-.2-1-.8-1.6-1.7-1.9-.6-.2-1.1-.2-1.7-.2h-2c-.5 0-1.4.1-1.9 0-.5 0-.7-.4-.8-.8 0-.4-.1-.9.1-1.2.4-.7 1-1.1 1.9-1.1 1.1-.1 2.2-.2 3.3-.4.7-.1 1.4-.2 2-.5.7-.2 1.1-.7 1.2-1.4.1-.4.1-.8.1-1.2.2-3.1.2-5.5 0-8.6 0-.6-.2-1.1-.4-1.7-.2-.5-.6-.9-1.2-1-1.4-.3-8.1-.2-9.5 0-.7.1-1.1.6-1.1 1.2 0 .7.6 1.3 1.1 1.4.2.1.5.1.7.1.4 0 6 0 6.4.1.7.1 1.1.6 1.2 1.3v.7c0 .6-.3.9-1 1h-4.6c-1.2 0-.5.1-1.7.1-.5 0-.9 0-1.4.1-.7.1-1.1 1.2-.7 1.8.1.1.2.3.4.3.5.1 1 .2 1.5.2 1.5 0 1.1.1 2.6 0 1-.1 2.1 0 3.1.1.5 0 .9.1 1.4.2.2 0 .4.2.5.5.2.7.1.7-.1 1.4-.1.4-.4.7-.8.8-.3.1-.6.1-.9.1-1.4.2-2.8.3-4.1.7-.7.2-1.4.4-2.2.7-.3.1-.5.3-.6.6-.2.7-.4 1.3-.4 2v.8c-.2 2.1-.8 1.8-2.5 1.8h-.2c-.4-.1-.7-.3-.9-.7-.1-.2-.1-.3-.2-.5-.1-.7-.1-1.7-.1-2.1-.1-1.3-.1-2.6-.2-4 0-.5-.1-.9-.1-1.4-.1-.5-.4-.8-.9-.9-.4-.1-1 .2-1.1.6-.1.2-.1.3-.2.5s-.1.5-.1.7v8.3c0 .6-.5 1-1.2 1h-2.5c-3.4.1-4.7.1-8.1.2-.6 0-1.2.1-1.7.3-.4.2-.6.5-.6.9 0 .5.1.9.4 1.3.2.3.5.5.8.5.4.1.8.1 1.2.1h9.8c.4 0 .9.1 1.3.2.5.2.9.6 1 1.1v.2c.1 1.4.1 2.9 0 4.3 0 .5-.4.8-.9.8-.8 0-1.1-.3-1.3-.9-.1-.3-.1-.6-.2-1s-.2-.8-.3-1.1c-.2-.5-.6-.9-1.2-.9-.6-.1-1.3 0-2 0-.5 0-.8.3-.9.9-.1.6-.1 1.3-.2 1.9 0 .3-.1.6-.2 1-.1.3-.3.5-.6.5s-.6.1-1 0c-.4 0-.7-.3-.8-.7-.2-.6-.3-1.3-.4-1.9-.1-.3-.1-.6-.3-.9-.1-.2-.3-.3-.4-.4-.4-.1-.8-.1-1.2-.1h-2.7c-.7 0-1.3-.1-1.9-.3-.7-.3-1.2-.7-1.4-1.5-.1-.4-.2-.9-.2-1.3v-5.4c.1-.6.5-1 1-1.1H148.9c.6 0 1.2 0 1.8-.1.3 0 .5-.1.8-.2.4-.1.7-.4.8-.8.1-.6.2-1.2.3-1.7.1-2 .2-4 .3-6.1 0-.7-.1-1.4-.2-2.1-.1-.7-.5-1.1-1.2-1.2-1.6-.2-3.2-.3-4.9-.1-.5.1-.8.4-.9.9-.1.5.2 1.1.6 1.3.4.1.7.2 1.1.4.4.1.8.2 1.1.4.6.3 1 .8 1.1 1.5.1.9 0 1.8-.2 2.7-.2.8-.7 1.4-1.5 1.7-.5.2-1 .2-1.5.1-.2 0-.4-.2-.4-.3-.1-.4-.1-.8-.2-1.2-.1-.5-.1-1-.2-1.5-.1-.6-.5-.9-1.1-.9h-.6c-.3.1-.6.3-.7.6-.1.3-.1.6-.1 1l-.3 1.5c-.1.6-.5.9-1.1.9-1.1 0-2.2.1-3.3.1h-1.6c-.7 0-1.2.5-1.3 1.2-.1.8-.1 1.6-.2 2.3 0 .7 0 1.7-.1 2.4 0 .3-.1.6-.3.9-.1.2-.3.4-.6.5-.4.1-.9.1-1.4.1-.8 0-1.3-.5-1.4-1.4-.1-.7-.1-1.4-.2-2.2v-5.3c0-.5 0-1-.1-1.6-.1-.7-.5-1.2-1.2-1.4-.2-.1-.5-.2-.8-.2-.5-.1-1.1.3-1.2.8-.2.7-.2 1.4-.2 2.1v2.5c0 .5-.5.9-1 .9h-.4c-.3 0-.7-.1-1-.1-.8 0-1.3-.4-1.6-1.2-.3-.7-.4-1.4-.4-2.1V8.6c0-1-.3-2.1-.8-3-.3-.6-.8-.9-1.4-1-.5 0-1-.1-1.6-.1h-3.7c-.5 0-.8.3-1 .8 0 .1-.1.3-.1.4 0 .5.3.9.7 1 .4.1.9.1 1.4.1.6.1 1.2.1 1.7.2.9.2 1.3.8 1.5 1.6v.2c0 1 .1 2 .1 2.9 0 .2-.2.5-.5.6-.3.1-.5.1-.8.2-.5.1-1 .1-1.6.1-1.2.2-2 .9-2.2 2.1-.1.7-.1 1.4-.1 2.1 0 .7.1 1.4.3 2.1.2.5.5.7 1.1.7.6 0 1.1-.4 1.2-.8.1-.4.1-.9.2-1.4.2-1.4.6-1.7 2.1-1.7.2 0 .5.1.7.3.3.2.6.5.8.8.5.5 1 .8 1.7.9.8.1 1.7.1 2.5.2.3 0 .6 0 1 .1.3.1.5.3.5.5.2 1 .2 2.1-.1 3.1-.1.2-.3.5-.5.6-.3.2-.7.3-1.1.4-1.5.3-2.9.5-4.5.5H120c-.2 0-.4.1-.6.1-.5.1-.8.4-.9.9 0 .1-.1.3-.1.4-.1 1-.3.8-.3 1.9-.1 1-.1 2.1-.1 3.1 0 .7-.1 1.4-.4 2.1-.2.4-.5.6-.9.7-.8.1-1.6-.5-1.7-1.2 0-.5-.1-1-.1-1.6 0-1.8 0-2.3-.1-4.1-.1-1.3-.5-2-1.5-2.3-.8 0-1.6.1-2.5.1-.4 0-.8.1-1.2.1-1.2 0-2.1.6-2.7 1.7-.5 1-1 2-1.5 2.9-.2.5-.5.9-.7 1.4-.5.9-1.3 1.3-2.3 1.1-.3 0-.6-.2-.7-.6-.1-.4-.2-.8-.2-1.1v-2.9c.1-1.4.2-2.7.3-4.1 0-.5.2-1 .5-1.5.4-.7 1-1.2 1.9-1.2 1.2-.1 2.5-.3 3.7-.4.8-.1 1.7-.3 2.5-.6.6-.2 1-.7 1.1-1.3.1-.4.2-.8.2-1.2.3-3.7.2-7.3 0-11 0-.7-.2-1.3-.5-1.9-.2-.5-.7-.8-1.2-.9-1.6-.3-3.2-.2-4.9 0-.8.1-1.3.7-1.3 1.3 0 .9.7 1.5 1.2 1.6.5.1 1 .1 1.6.1 1.5 0 2 .9 1.9 2.1v.6c0 .3-.3.6-.6.7-.5 0-.9.1-1.4.1H102c-1.2 0-2.7.1-4.1.1-.5 0-.9.1-1.4.1-.5.1-.8.4-.9.9 0 .3-.1.5 0 .8 0 .3.3.6.6.7.2.1.5.2.8.2.5.1 1 .1 1.6.1 2.5 0 5.1.2 7.6.1.6 0 1.3.1 1.9.2.3 0 .6.4.6.7v1.8c-.1.7-.6 1.3-1.4 1.4-1.1.2-2.2.3-3.3.4-1.4.2-2.8.5-4.2 1.1-.5.2-.8.5-.9.9-.2.7-.4 1.5-.4 2.3-.1 2.9 0 1.6-.1 4.5 0 .5-.1.9-.1 1.4-.1.3-.5.7-.8.7l-5.4-.1c-.9 0-1.5-.4-2-1.1-.2-.3-.4-.6-.4-.9-.1-1-.1-2-.1-2.9 0-.7.6-1.3 1.4-1.4.8-.1 1.6-.1 2.3-.1.4 0 .8 0 1.2-.1 1.1-.1 1.7-.9 1.5-2 0-.2-.1-.4-.2-.6-.2-.5-.6-.9-1.1-.9-.6-.1-1.2-.1-1.8-.1s-1.2 0-1.8-.1c-1.3-.1-2-1.1-2-2 0-.6-.1-1.2-.1-1.8 0-.5-.1-1-.2-1.6-.2-1.4-1.1-2.2-2.4-2.5-.9-.2-1.8-.2-2.7-.2-.8 0-1.6 0-2.3-.1-.5 0-.8-.4-1-.8-.1-.4-.2-.9-.3-1.3.2 0 .2-1 .1-2-.1-.9-.8-1.7-1.8-1.8H78c-1.2 0-2.3.1-3.5.2-.8.1-1.2.7-1 1.6.1.4.4.7.8.8.5.2 1 .2 1.5.4.6.1.9.5.9 1.1 0 .5 0 .9-.1 1.4-.1.5-.3.9-.7 1.1-.1.1-.3.2-.5.3-.3.1-.7 0-1 .1h-3.5c-.7.1-1.2.6-1.3 1.2 0 .3-.1.5-.1.8v1.2c0 .9-.1 1.3-1.3 1.6-.3.1-.6.1-1 .1-.6 0-1-.3-1.2-.9-.2-.4-.3-.9-.4-1.3-.1-.2-.1-.5-.3-.7-.2-.5-.6-.9-1.2-.9-1.9-.1-3.8-.3-5.7-.2-.5 0-.9.1-1.3.3-.4.1-.8.5-.9 1-.3 1.1-.3 2.2-.1 3.3.1.5.7.8 1.2.7.3-.1.6-.2.8-.5.2-.2.3-.4.4-.7.4-.6.9-.9 1.6-.9.5 0 .9 0 1.4.1.5.1 1 .4 1.2.9.3.9.6 1.9.8 2.8.4 1.2.8 2.5 1.1 3.7.2.7.7 1.1 1.3 1.3.8.3 1.5.3 2.3.4.5.1 1 .5 1 1 0 .6.1 1.2-.1 1.8-.2.7-.6 1.2-1.3 1.4-.9.2-1.8.4-2.7.4-.9 0-1.8 0-2.7.1-1.1.1-2 .9-2.1 2-.1.8-.2 1.7-.2 2.5v.8c-.2 1.4-.8 2.2-1.8 2.2-.7 0-1.9-.5-1.9-2.3v-.2l-.1-1.7v-.2c0-1.2-.6-1.9-1.6-2.4l-.9-.3c-1.2-.4-2.2-1-3.3-1.7-.7-.4-1-1-1.1-1.8-.1-.7.3-1.5 1-1.7.3-.1.6-.2 1-.2h3.1c.8 0 1.4.4 1.7 1.1.2.5.4 1.1.6 1.7.3.9 1.2 1.2 2.1.7.2-.1.4-.3.5-.6.2-1.2.2-2.5 0-3.7-.2-1.4-1.3-2.3-2.7-2.4-1-.1-2-.1-2.9-.1-1.2-.1-2.5-.1-3.7-.2-.4 0-.8-.5-.8-.9v-2c0-.3 0-.5-.1-.8-.3-1.2-1.4-1.7-2.6-1.3-.2.1-.4.3-.5.6-.2.4-.3.7-.3 1.1-.1 1.2-.2 2.5-.1 3.7 0 1.7.1 3.4.1 5.1 0 .4.1.8.1 1.2 0 1.2.6 2.1 1.7 2.7 1 .5 2 1 2.9 1.5.5.2.9.5 1.4.7.9.5 1.3 1.3 1.1 2.3 0 .3-.2.6-.6.7-.4.1-.8.2-1.1.2h-2.9c-1.4-.1-2.7-.2-4.1-.3-.5 0-1-.2-1.5-.5-.7-.4-1.2-1-1.2-1.9-.1-1.2-.3-2.5-.4-3.7-.1-.9-.3-1.7-.6-2.5-.2-.6-.7-1-1.3-1.1-.4-.1-.8-.2-1.2-.2-3.7-.3-7.3-.2-10.9 0-.7 0-1.3.2-1.9.5-.5.2-.8.6-.9 1.2-.2.9-.2 1.7-.2 2.6 0 1.5-1.2 2-1.7 2-.7 0-1.3-1.5-1.3-2.1 0-.4 0-2.3.1-3.6l.2-2.1c0-.4 0-.8.1-1.2.1-.8.5-1 1.2-1.1 2.8-.3 5.6-.3 8.4-.2h7.7c.5 0 1-.2 1.5-.5.6-.3 1-.9 1.1-1.6V8.4c0-.3 0-.5-.1-.8 0-.2-.1-.4-.2-.5-.2-.4-.8-.8-1.3-.7-.5.1-1 .5-1 1-.1.5-.1 1-.2 1.6-.1 1.5-.2 3-.2 4.5 0 .7-.1 1.3-.3 1.9-.2.5-.5.8-1 .9-.3.1-.6.2-1 .1-.6 0-1.3-.1-1.9-.2-.4-.1-.6-.3-.7-.6-.1-.3-.2-.6-.2-1 0-1-.1-2-.1-2.9-.1-1.4-.2-2.7-.3-4.1 0-.4-.3-.7-.7-.8-.1 0-.2-.1-.4-.1-.6-.1-1.2.2-1.4.7-.1.4-.2.8-.2 1.1v2.2c0 1.1 0 2.2-.1 3.3 0 .5-.1 1-.3 1.5-.1.6-.6.9-1.1 1-.5.1-1 .1-1.6 0-.6-.1-1.2-.7-1.2-1.3v-.6c.2-1.1 0-2.1-.1-3.1-.1-.8-.7-1.3-1.4-1.3h-.8c-1.8.1-3.5.1-5.3.2-.5 0-.9 0-1.4.1-.2 0-.4.1-.5.3-.6.6-.4 2 .4 2.4.3.1.6.2.9.2.6 0 1.2.1 1.8 0 .9-.2 1.7.1 2.5.3.3.1.4.3.5.6.1.4.2.8.1 1.2-.1.5-.4.9-.9.9-.5.1-.9.1-1.4.1-.3 0-.6.1-1 .2-.9.2-1.5.9-1.5 1.8v1.2c.1 1.5-.2 3-.2 4.5 0 .4-.3.7-.6.9-.3.1-.6.3-.9.3-.6.1-1.2.1-1.8.1h-9c-1.5 0-1.9-.9-2-1.1v-.8c0-.3.6-1.2 2-1.2h3.9c.7 0 1.4-.2 2.1-.5 1-.4 1.5-1 1.5-2.1 0-2 .1-3.9.1-5.9 0-1.2-.1-2.5-.1-3.7 0-1.6.2-3.1.3-4.7.3-1 .8-1.5 1.5-1.5h2.5c.7 0 1.3.4 1.6 1 .3.5.4 1.1.6 1.6.2.5.6.8 1.2.9.5 0 1 0 1.5-.3.4-.2.6-.5.6-.9 0-1 0-2-.1-2.9-.2-1.3-1-2.3-2.3-2.7-.2-.1-.5-.1-.8-.2-1.7-.1-3.4-.3-5.1-.4-.7 0-1.4.1-2.1.3-.7.2-1.2.5-1.6 1.1-.4.6-.7 1.3-.8 2 .1.4 0 .9 0 1.3V9.7c0 .7-.4 1.2-1.2 1.4l-2.1.3c-1 .1-2.1 0-3.1.1-.4 0-.8 0-1.2.1-.6 0-1.1.4-1.3 1.1-.1.3 0 .5.1.7.4.6 1 1 1.8 1 1.5 0 3 0 4.5.1.6 0 1.2.1 1.8.1.4 0 .7.4.7.8v1c-.3 2.4-.1 2.8-3 2.7" style="mask:url(#b);fill-rule:evenodd;clip-rule:evenodd;fill:#faf7dc"/>
</svg>
